<svg xmlns="http://www.w3.org/2000/svg" viewBox="0 0 64 64" role="img" aria-label="Cobus Nel">
  <circle cx="32" cy="32" r="32" fill="#0A0A0A"/>
  <circle cx="32" cy="32" r="30.3" fill="none" stroke="#D4A574" stroke-width="1.5"/>
  <g transform="translate(13.491 47.056) scale(0.04969 -0.04969)">
    <path d="M127 127V602L157 600V127Q157 74 179.0 43.0Q201 12 240 12Q242 12 242.0 6.0Q242 0 240 0Q218 0 194.5 1.0Q171 2 143 2Q113 2 84.5 1.0Q56 0 32 0Q29 0 29.0 6.0Q29 12 32 12Q76 12 101.5 43.0Q127 74 127 127ZM637 -15Q637 -18 632.5 -18.5Q628 -19 626 -18L133 543Q97 584 72.0 598.5Q47 613 22 613Q20 613 20.0 619.0Q20 625 22 625Q42 625 63.0 624.0Q84 623 102 623Q138 623 167.0 624.0Q196 625 212 625Q225 625 231.5 613.5Q238 602 262 573L629 150ZM637 497V-15L608 15V497Q608 550 586.0 581.5Q564 613 525 613Q523 613 523.0 619.0Q523 625 525 625Q547 625 570.5 623.5Q594 622 622 622Q649 622 675.0 623.5Q701 625 723 625Q725 625 725.0 619.0Q725 613 723 613Q683 613 660.0 581.5Q637 550 637 497Z" fill="#D4A574"/>
  </g>
</svg>